<svg xmlns="http://www.w3.org/2000/svg" viewBox="0 0 32 32" width="118" height="118" style="fill: rgba(109, 190, 248, 1);border-color: rgba(0,0,0,0);border-width: bpx;border-style: undefined" filter="none"><path d="M16 30.222c-7.855 0-14.222-6.367-14.222-14.222s6.367-14.222 14.222-14.222 14.222 6.367 14.222 14.222-6.367 14.222-14.222 14.222zM21.368 16.696c0.052-0.042 0.097-0.087 0.137-0.137l0.001-0.002c0.307-0.383 0.245-0.943-0.139-1.249l-6.577-5.262c-0.151-0.121-0.344-0.195-0.555-0.195 0 0 0 0-0 0v0c-0.491 0-0.889 0.398-0.889 0.889v10.523c0 0 0 0 0 0 0 0.211 0.073 0.405 0.196 0.557l-0.001-0.002c0.307 0.383 0.866 0.445 1.249 0.139l6.577-5.262z"></path></svg>