<svg xmlns="http://www.w3.org/2000/svg" viewBox="0 0 32 32" width="56" height="56" style="fill: rgba(64, 163, 61, 1);border-color: rgba(187,187,187,1);border-width: 0px;border-style: solid" filter="none"><path d="M16.014 1.792c7.855 0 14.222 6.368 14.222 14.222s-6.368 14.222-14.222 14.222c-7.855 0-14.222-6.368-14.222-14.222s6.368-14.222 14.222-14.222zM24.528 10.819c-0.185-0.173-0.517-0.187-0.728-0.026l-9.414 7.128c-0.175 0.133-0.499 0.148-0.687 0.031l-3.562-2.219c-0.223-0.139-0.539-0.089-0.707 0.109l-0.412 0.484c-0.176 0.207-0.144 0.497 0.056 0.683l4.404 4.104c0.324 0.302 0.84 0.314 1.154 0.021l10.103-9.416c0.212-0.197 0.226-0.496 0.024-0.684z"></path></svg>